<svg width="19" height="19" viewBox="0 0 19 19" fill="none" xmlns="http://www.w3.org/2000/svg">
<path d="M14.0996 4.3469V4.93273L11.2971 3.30982C10.2362 2.70023 8.75581 2.70023 7.70289 3.30982L4.90039 4.94065V4.3469C4.90039 2.56565 5.87414 1.58398 7.65539 1.58398H11.3446C13.1258 1.58398 14.0996 2.56565 14.0996 4.3469Z" fill="white"/>
<path d="M14.124 6.31001L14.0132 6.2546L12.9365 5.6371L10.704 4.34668C10.0232 3.95085 8.97815 3.95085 8.29732 4.34668L6.06482 5.62918L4.98815 6.26251L4.84565 6.33376C3.46023 7.26793 3.36523 7.4421 3.36523 8.93835V12.5167C3.36523 14.0129 3.46023 14.1871 4.87732 15.145L8.29732 17.1163C8.63773 17.3221 9.06523 17.4092 9.50065 17.4092C9.92815 17.4092 10.3636 17.3142 10.704 17.1163L14.1557 15.1213C15.549 14.1871 15.6361 14.0208 15.6361 12.5167V8.93835C15.6361 7.4421 15.5411 7.26793 14.124 6.31001ZM11.7094 10.6879L11.2265 11.2817C11.1473 11.3688 11.0919 11.535 11.0998 11.6538L11.1473 12.4138C11.179 12.8808 10.8465 13.1183 10.4111 12.9521L9.70648 12.6671C9.59565 12.6275 9.41357 12.6275 9.30273 12.6671L8.59815 12.9442C8.16273 13.1183 7.83023 12.8729 7.8619 12.4058L7.9094 11.6458C7.91732 11.5271 7.8619 11.3608 7.78273 11.2738L7.2919 10.6879C6.99107 10.3317 7.12565 9.93585 7.5769 9.8171L8.31315 9.6271C8.4319 9.59543 8.56648 9.4846 8.62982 9.3896L9.04148 8.75626C9.29482 8.36043 9.69857 8.36043 9.95982 8.75626L10.3715 9.3896C10.4348 9.49251 10.5773 9.59543 10.6882 9.6271L11.4244 9.8171C11.8757 9.93585 12.0102 10.3317 11.7094 10.6879Z" fill="white"/>
</svg>
