<svg width="72" height="45" viewBox="0 0 72 45" fill="none" xmlns="http://www.w3.org/2000/svg">
<path fill-rule="evenodd" clip-rule="evenodd" d="M66.6348 10.5154C66.9565 12.3043 67.2392 14.2459 67.6834 16.1499C67.8385 16.8156 68.2066 17.3843 67.5884 17.9501C67.4613 18.0663 67.2781 18.2463 67.1541 18.2208C65.0527 17.7886 62.9783 18.3188 60.8918 18.3056C59.4944 18.2966 58.1269 18.0419 56.993 17.1056C56.7668 16.9186 56.6813 16.5544 56.5312 16.272C56.8079 16.1337 57.0764 15.8935 57.3621 15.8734C59.4398 15.7279 61.52 15.6058 63.6016 15.5235C64.2546 15.4976 64.3011 15.2252 64.2263 14.6547C64.0539 13.3382 63.9841 12.0094 63.8269 10.6908C63.7599 10.1271 63.5806 9.57625 63.4466 9.02097C63.4354 8.97458 63.3503 8.94057 63.3478 8.89834C63.3211 8.46219 63.1635 7.71597 63.3116 7.64758C63.7388 7.44976 64.3211 7.39592 64.7865 7.51694C66.2248 7.89098 66.1871 9.29058 66.6348 10.5154Z" fill="black"/>
<path fill-rule="evenodd" clip-rule="evenodd" d="M38.526 10.9517C38.4744 10.886 38.4222 10.8202 38.3706 10.7545L36.5695 12.4922C36.636 12.5626 36.7026 12.6328 36.769 12.7029C37.3545 12.1194 37.9405 11.5353 38.526 10.9517ZM22.4229 16.9271C22.3783 16.8793 22.3337 16.8315 22.289 16.7836C21.2519 17.6019 20.2147 18.4205 19.1773 19.2391C19.2362 19.3147 19.2954 19.3903 19.3542 19.4656C20.3771 18.6196 21.4 17.7732 22.4229 16.9271ZM35.5265 20.8856C35.926 21.7228 36.3095 22.5683 36.7301 23.3948C36.9898 23.9053 37.3707 23.9564 37.8825 23.6912C39.4854 22.8597 40.3384 21.0004 40.0007 19.1358C39.6327 17.1033 38.1685 16.1814 36.4812 15.4865C36.3493 15.432 35.9824 15.6859 35.8822 15.8802C35.0585 17.4812 35.1443 19.1525 35.5265 20.8856ZM28.1492 15.5447C23.4218 16.6295 19.967 19.4818 17.2345 23.3985C14.1238 27.8573 12.1153 32.8244 10.5827 38.0203C10.1185 39.5939 9.69426 41.1805 9.19267 42.7412C9.05843 43.1601 8.77989 43.6248 8.42939 43.8452C8.18756 43.9973 7.70823 43.7657 7.33496 43.7052C7.38432 43.479 7.42311 43.2492 7.48523 43.0269C7.65302 42.4278 7.88141 41.8416 7.99497 41.2326C8.36515 39.2506 8.66131 37.2541 9.05158 35.2767C9.31466 33.9439 9.63602 32.6178 10.0316 31.3206C10.2815 30.5013 10.7574 29.7564 11.0589 28.9499C11.5371 27.6719 11.8384 26.3123 12.425 25.0917C13.3374 23.1914 14.2708 21.2664 15.4727 19.5518C18.1298 15.7615 21.7083 13.2983 26.3043 12.3711C28.443 11.9396 30.5411 11.429 32.7502 11.7212C32.9917 11.7532 33.3597 11.5015 33.5265 11.2743C35.2045 8.98388 37.42 7.42348 40.0607 6.53464C42.0368 5.8693 44.053 5.15591 46.1043 4.935C47.8249 4.74945 49.6504 5.10592 51.3769 5.4792C52.9117 5.81148 54.413 6.40601 55.8603 7.04598C57.9221 7.95807 59.6076 9.42114 60.9521 11.2436C61.1451 11.5052 61.0927 12.0991 60.9374 12.4362C60.7652 12.8111 60.36 12.7619 59.893 12.6845C58.431 12.4419 57.5719 11.3494 56.5766 10.4728C54.6912 8.81156 52.4405 8.13577 50.0606 8.09284C46.0001 8.01937 42.3714 9.48007 39.0889 11.7891C37.3159 13.0368 37.3571 13.1134 39.1733 14.1605C41.5637 15.5383 43.2095 17.5067 43.7909 20.254C44.4655 23.4427 42.4806 26.3432 39.3148 26.9439C38.321 27.1322 37.4957 26.7056 36.6919 26.2542C34.866 25.2285 33.5847 23.6812 32.7664 21.7556C31.9195 19.7639 31.3152 17.7243 31.7655 15.5177C31.8741 14.9849 31.5934 14.84 31.0974 14.9482C30.1177 15.1615 29.1322 15.3473 28.1492 15.5447Z" fill="black"/>
</svg>
