<svg width="42" height="33" viewBox="0 0 42 33" fill="none" xmlns="http://www.w3.org/2000/svg">
<path d="M35.9006 28.8206C35.395 28.4991 35.1192 28.3154 34.7974 28.1777C34.0159 27.7644 33.2805 27.3051 32.499 26.8918C32.1772 26.7541 31.8095 26.6622 31.4418 26.6163C31.0281 26.5704 30.6144 26.7541 30.4764 27.1674C30.3385 27.6266 30.5684 27.9481 30.9361 28.1777C32.2232 29.0502 33.5103 30.0146 34.7974 30.8871C35.303 31.2545 35.8546 31.576 36.4063 31.8515C38.107 32.77 39.3022 32.3108 39.7159 30.4279C40.2675 27.8103 40.6353 25.1467 41.049 22.5291C41.1409 22.024 41.003 21.427 40.8651 20.9218C40.7732 20.4626 40.4974 20.1411 39.8538 20.187C39.3022 21.2433 38.8425 22.3454 38.5667 23.5394C38.2909 24.6416 38.0151 25.7897 37.5554 26.8918C37.3256 26.3408 37.0958 25.7437 36.82 25.1927C36.0385 23.5394 35.303 21.8403 34.3837 20.2789C32.499 16.9724 29.6031 15.3192 25.8337 15.0896C23.8112 14.9977 21.7886 15.2733 19.812 15.6406C18.9386 15.7784 18.0652 15.9162 17.1918 16.054C15.0773 16.3295 13.1007 15.9162 11.2161 14.9977C8.18221 13.5282 5.83787 11.2779 4.27498 8.29293C3.17176 6.18046 2.34434 3.93022 1.74676 1.63406C1.65483 1.3126 1.7008 0.991137 1.60886 0.669674C1.51693 0.440058 1.33306 0.07267 1.14919 0.0267487C0.91935 -0.0191765 0.459675 0.0726738 0.321772 0.302288C0.091935 0.577829 0 1.03706 0 1.40444C0 2.09329 0.137902 2.78214 0.275805 3.47099C1.19515 7.42039 2.75805 11.0942 5.7919 13.9415C8.09028 16.0999 10.7104 17.6613 13.7902 18.3042C15.7209 18.7175 17.6515 18.442 19.5822 18.1205C20.7773 17.9368 21.9725 17.6613 23.1676 17.5235C24.2249 17.4316 25.2821 17.4776 26.3394 17.5694C28.224 17.7531 29.7869 18.6257 30.9821 20.0952C31.5337 20.7381 31.9934 21.427 32.4071 22.1617C33.4643 24.0905 34.4756 26.0652 35.5329 27.994C35.6708 28.1777 35.7167 28.4073 35.9006 28.8206Z" fill="black"/>
</svg>
