<svg width="81" height="66" viewBox="0 0 81 66" fill="none" xmlns="http://www.w3.org/2000/svg">
<path fill-rule="evenodd" clip-rule="evenodd" d="M6.15829 48.8701C7.33219 50.5587 8.65947 52.3384 9.82739 54.2172C10.2359 54.8738 10.3965 55.6235 11.3437 55.5815C11.5384 55.5727 11.829 55.5701 11.9078 55.4506C13.2433 53.4235 15.3272 52.188 16.986 50.508C18.0968 49.3828 18.9872 48.0849 19.1453 46.4286C19.1767 46.098 18.9537 45.7382 18.8478 45.3922C18.5157 45.5029 18.1087 45.5255 17.8641 45.7381C16.0854 47.284 14.3233 48.8506 12.592 50.4502C12.0489 50.9519 11.7937 50.7712 11.3971 50.2549C10.4817 49.0637 9.47443 47.9447 8.54521 46.7638C8.14776 46.2593 7.85056 45.6751 7.51347 45.1236C7.48533 45.0776 7.52618 44.9823 7.49442 44.9465C7.16682 44.5762 6.69586 43.853 6.52265 43.9168C6.02258 44.1003 5.51363 44.5231 5.23807 44.9923C4.3866 46.4423 5.53657 47.532 6.15829 48.8701Z" fill="black"/>
<path fill-rule="evenodd" clip-rule="evenodd" d="M29 26.729C28.9887 26.6352 28.9778 26.5407 28.9665 26.4469L31.7979 26.3962C31.8011 26.5057 31.8039 26.6151 31.8069 26.7244C30.8715 26.7259 29.9354 26.7275 29 26.729ZM46.6645 18.626C46.6619 18.552 46.6593 18.478 46.6568 18.404C48.1413 18.2289 49.626 18.054 51.111 17.879C51.1244 17.9866 51.1375 18.0944 51.1507 18.2017C49.6554 18.3432 48.1598 18.4844 46.6645 18.626ZM39.3464 32.277C39.6966 33.2664 40.0663 34.2497 40.391 35.2475C40.5917 35.8638 40.3278 36.2094 39.7061 36.4067C37.7585 37.0239 35.5883 36.2188 34.3667 34.4567C33.035 32.5362 33.4689 30.627 34.2628 28.721C34.3248 28.5719 34.8214 28.4815 35.0571 28.5568C36.9971 29.1787 38.2656 30.5846 39.3464 32.277ZM40.9767 22.1013C45.6269 19.187 50.6731 18.7049 55.993 19.6524C62.0493 20.731 67.6304 23.0981 73.0138 26.029C74.6441 26.9166 76.253 27.8467 77.903 28.6941C78.3455 28.9218 78.9402 29.0707 79.397 28.9666C79.7122 28.8949 79.9104 28.3261 80.1606 27.979C79.9402 27.8375 79.7252 27.6847 79.4976 27.5565C78.8841 27.2114 78.2323 26.9251 77.6542 26.5288C75.7723 25.2392 73.9379 23.8787 72.0437 22.6089C70.7668 21.7531 69.4487 20.9492 68.0944 20.2278C67.2389 19.7722 66.2622 19.557 65.3757 19.153C63.9705 18.5131 62.6417 17.6664 61.1958 17.159C58.9453 16.3687 56.6584 15.5753 54.3249 15.1651C49.1665 14.2584 44.3327 15.1508 39.9136 18.0861C37.8572 19.452 35.7701 20.7222 34.2363 22.7235C34.0688 22.9423 33.5729 23.0354 33.2577 22.987C30.0826 22.497 27.0616 23.0212 24.2376 24.4228C22.1243 25.4715 19.9404 26.5139 18.1224 27.9783C16.5973 29.2065 15.422 30.9522 14.3393 32.6322C13.3772 34.126 12.6517 35.8029 12.0057 37.4729C11.0859 39.8522 10.9079 42.3714 11.2904 44.9052C11.3453 45.269 11.8623 45.7021 12.2563 45.8477C12.694 46.0098 12.9788 45.6463 13.2905 45.2107C14.2662 43.8469 14.0795 42.2854 14.1744 40.7877C14.3537 37.9501 15.6138 35.6087 17.4836 33.6702C20.6735 30.3627 24.7455 28.6281 29.2192 27.8492C31.636 27.429 31.6643 27.5232 31.0489 29.8141C30.2388 32.829 30.4969 35.7206 32.2298 38.3838C34.2413 41.4749 38.1501 42.2074 41.1635 40.1551C42.1093 39.5107 42.4283 38.509 42.7103 37.5047C43.3505 35.2232 43.1377 32.9601 42.2518 30.7648C41.3358 28.4936 40.1874 26.3783 38.0618 24.9731C37.5485 24.6337 37.6571 24.2932 38.1406 23.9829C39.0951 23.3698 40.0323 22.7299 40.9767 22.1013Z" fill="black"/>
</svg>
