<svg width="32" height="70" viewBox="0 0 32 70" fill="none" xmlns="http://www.w3.org/2000/svg">
<path d="M4.93206 65.1154C5.28019 64.9117 5.37347 64.8499 5.46676 64.7881C5.58509 64.6829 5.70342 64.5778 5.91504 64.4108C5.13721 63.9618 5.20344 63.2483 5.33791 62.5164C5.84836 60.0355 6.7978 57.6925 7.83367 55.3993C9.79838 51.0982 11.8495 46.847 13.8142 42.5458C14.4858 41.0832 15.071 39.5707 15.5197 38.095C16.064 36.1541 15.7502 35.7995 13.7257 35.6136C13.2366 35.5626 12.6793 35.5299 12.1721 35.4105C10.2728 35.0079 9.2837 33.6273 9.75982 31.7049C10.0332 30.5328 10.5546 29.3303 11.1123 28.2645C12.7354 25.1539 14.7292 22.1995 16.8708 19.3883C19.8682 15.3943 22.9519 11.4501 25.9925 7.481C26.6229 6.68849 27.1669 5.84607 27.7109 5.00366C27.7929 4.76187 27.9249 4.43335 28.1321 3.97472C27.3882 4.06564 26.8059 4.07636 26.2166 4.19877C22.5517 4.85835 19.0139 5.99615 15.5307 7.3389C11.3149 8.95259 7.21494 10.8645 3.29232 13.1679C2.96923 13.3283 2.66433 13.557 2.32307 13.6491C1.72698 13.8832 1.23791 13.8321 0.776303 13.3343C0.401118 12.8864 0.33084 12.2098 0.742767 11.6959C1.01133 11.3305 1.34814 10.9467 1.78955 10.6812C2.93407 9.89635 4.10362 9.06817 5.30952 8.37662C11.3071 5.07392 17.6525 2.66587 24.3205 1.19584C25.3875 0.944503 26.534 0.854747 27.6624 0.696673C27.8421 0.684783 28.0651 0.697842 28.2448 0.685952C31.2361 0.793936 32.5866 2.84578 31.1275 5.47282C30.0941 7.3626 28.8446 9.12763 27.5519 10.8677C24.0856 15.5741 20.4465 20.1806 17.0235 24.912C15.6557 26.7821 14.5653 28.8703 13.4135 30.8653C13.1631 31.299 13.0424 31.8075 12.8283 32.3778C13.6518 32.4485 14.2955 32.531 14.9825 32.6385C17.7121 33.0002 19.0037 34.5554 18.8571 37.3041C18.7517 39.3828 18.0527 41.2921 17.1125 43.1201C13.8595 49.453 10.5201 55.736 7.19887 62.0874C6.91658 62.6761 6.57291 63.1716 6.17229 63.8655C6.81603 63.948 7.06642 63.5143 7.37133 63.2856C9.80615 61.1641 12.3888 59.1857 15.1556 57.4872C15.6652 57.2032 16.2181 56.9441 16.8893 56.5799C16.8344 57.4734 16.5339 57.9938 16.147 58.4643C14.5813 60.2781 13.077 62.1851 11.4499 63.9056C9.82275 65.6261 7.98643 67.1102 6.25472 68.7125C5.8747 69.0713 5.45146 69.4052 5.03509 69.6274C3.81101 70.2506 2.61237 69.7321 2.1556 68.4275C2.05786 68.1976 2.02837 67.9493 1.99889 67.701C1.72909 65.1744 1.41608 62.6229 1.21453 60.0779C1.15112 59.2896 1.22421 58.4644 1.31547 57.7076C1.3611 57.3292 1.47499 56.9323 1.67529 56.5854C1.93255 56.04 2.399 55.7311 3.04274 55.8136C3.68649 55.8962 4.01846 56.3191 4.13881 56.909C4.20465 57.294 4.20222 57.6974 4.24302 58.1257C4.42195 60.3107 4.66227 62.5889 4.93206 65.1154Z" fill="black"/>
</svg>
