<svg width="39" height="37" viewBox="0 0 39 37" fill="none" xmlns="http://www.w3.org/2000/svg">
<path fill-rule="evenodd" clip-rule="evenodd" d="M18.0149 3.03709C17.4066 2.78827 16.7804 2.74895 16.1566 2.88559C15.8993 2.94176 15.6647 3.19744 15.7719 3.46558C16.1221 4.34192 15.5816 4.95331 15.1689 5.57295C12.5434 9.51448 9.32969 12.9437 5.85495 16.1374C4.58701 17.303 3.274 18.4197 1.98846 19.566C1.81401 19.7216 1.56957 19.8274 1.68018 20.1847C1.79038 20.5412 2.08506 20.3983 2.25366 20.5108C3.53345 21.3651 4.42747 20.5038 5.37865 19.8699C10.1892 16.6641 14.0279 12.5203 17.1373 7.67497C17.7062 6.78828 18.1843 5.85123 18.4419 4.82427C18.6057 4.16989 18.6148 3.522 18.0149 3.03709Z" fill="#EA552B"/>
<path fill-rule="evenodd" clip-rule="evenodd" d="M24.1457 17.9125C24.2164 17.418 24.0818 17.1269 23.6199 17.0377C23.1661 16.9499 22.8647 17.029 22.5853 17.4671C21.9876 18.4043 20.9977 18.9013 20.0685 19.4328C16.7972 21.3053 13.3966 22.9293 10.0215 24.6018C9.75576 24.7336 9.47483 24.8527 9.4453 25.2353C9.40883 25.7009 9.85369 25.5133 10.0181 25.6999C10.5593 26.3141 11.1776 26.0521 11.774 25.8261C14.8703 24.652 17.9984 23.5478 20.8272 21.7756C21.7552 21.1942 22.6646 20.5895 23.5127 19.8914C23.8879 19.5824 23.8791 18.9865 24.4607 18.8066C24.6975 18.7335 24.8563 18.3095 24.8027 17.9491C24.7749 17.7618 24.7677 17.5357 24.56 17.4864C24.3163 17.4285 24.3167 17.7125 24.1457 17.9125Z" fill="#EA552B"/>
<path fill-rule="evenodd" clip-rule="evenodd" d="M29.5213 29.5397C28.7301 29.1199 28.101 29.1514 27.3568 29.4375C25.9234 29.9888 24.3812 29.9596 22.8637 29.9568C20.8578 29.9536 18.8607 29.8175 16.8741 29.5183C16.3708 29.4423 15.8511 29.4574 15.3394 29.4637C15.1445 29.4661 14.9047 29.492 14.9022 29.801C14.8999 30.0527 15.0546 30.1204 15.2462 30.247C16.7404 31.2347 18.4907 31.1784 20.1468 31.4191C22.4043 31.7471 24.6889 31.8474 26.9683 31.5239C27.8048 31.4051 28.6125 31.1877 29.3862 30.8495C29.7177 30.7044 30.0007 30.517 30.027 30.0984C30.0556 29.6392 29.7216 29.5829 29.5213 29.5397Z" fill="#EA552B"/>
</svg>
