<svg width="23" height="31" viewBox="0 0 23 31" fill="none" xmlns="http://www.w3.org/2000/svg">
<path d="M7.21759 27.0929C7.39392 25.9014 7.67108 24.6892 7.79106 23.5301C7.98016 21.5796 7.48415 19.8744 6.045 18.4882C4.82493 17.3513 3.58105 16.3033 2.30461 15.1989C1.91962 14.8575 1.47826 14.5487 1.09327 14.2073C0.785276 13.9342 0.646382 13.5634 0.886952 13.1991C1.04733 12.9561 1.40617 12.8617 1.688 12.699C1.74437 12.6664 1.83328 12.6903 1.92219 12.7141C5.62473 12.9438 8.58835 11.3079 10.9987 8.71382C13.1241 6.47214 15.0184 4.02563 17.0223 1.70376C17.3074 1.35132 17.5924 0.998866 17.8981 0.747239C18.0791 0.605154 18.4824 0.522627 18.6927 0.62664C18.9031 0.730654 19.0983 1.06886 19.0713 1.3475C19.0888 1.63805 18.949 1.98178 18.8212 2.28106C18.5655 2.8796 18.3098 3.47815 17.9978 4.10924C16.7615 6.58915 16.616 9.26604 16.4705 11.9429C16.4395 13.1258 16.8919 14.1046 17.727 14.9002C18.793 15.9005 19.9631 16.6905 21.2578 17.3709C21.6786 17.579 22.3009 17.7457 22.1667 18.4245C22.0206 19.1477 21.3506 19.1587 20.8258 19.1611C18.549 19.1228 16.6564 20.1403 14.8375 21.4159C12.9623 22.724 11.3387 24.3378 10.0676 26.2366C9.35781 27.2852 8.69247 28.3458 7.99458 29.3499C7.84611 29.5484 7.78655 29.7707 7.61745 29.8683C7.38007 30.0429 6.9855 30.2707 6.8196 30.1786C6.60923 30.0746 6.52671 29.6713 6.46481 29.3689C6.42355 29.1672 6.52756 28.9569 6.58712 28.7346C6.74197 28.1567 6.89682 27.5787 7.03976 27.0453C7.12867 27.0691 7.17313 27.081 7.21759 27.0929Z" fill="#21A9E1"/>
</svg>
