<svg width="23" height="29" viewBox="0 0 23 29" fill="none" xmlns="http://www.w3.org/2000/svg">
<path d="M16.9087 3.12486C16.7289 4.01474 16.549 4.90463 16.4239 5.80917C16.2138 7.68761 16.5692 9.42446 17.6836 10.9543C18.8381 12.5535 19.9232 14.1927 21.7352 15.0886C21.994 15.2166 22.2783 15.4686 22.3837 15.7314C22.5146 16.1183 22.7256 16.6438 22.5829 16.9574C22.4403 17.2709 21.8854 17.5913 21.4878 17.5434C16.2061 17.1248 12.9159 19.9955 10.3464 24.1146C9.72507 25.1207 9.23851 26.2802 8.7119 27.3703C8.44519 27.7092 8.39729 28.1068 8.14524 28.391C7.90785 28.6205 7.4917 28.8608 7.28755 28.7475C7.06874 28.6888 6.89783 28.2326 6.80702 27.9152C6.75624 27.667 6.88423 27.4082 6.95752 27.1347C7.32002 26.0006 7.66787 24.9212 8.03037 23.7872C8.42219 22.5437 8.86871 21.3148 9.20583 20.0567C9.81751 17.9927 8.84178 16.3828 7.42059 15.1225C6.51318 14.3517 5.43772 13.7704 4.13561 13.5974C3.34048 13.5016 2.63328 13.0776 1.84207 12.7484C1.58322 12.6204 1.32437 12.4924 1.20424 12.2843C1.05872 11.9522 0.887808 11.496 0.961094 11.2225C1.09301 10.7301 1.59998 10.8074 2.02294 10.9793C2.7194 11.2246 3.36117 11.4551 4.04297 11.7551C5.31184 12.271 6.60322 12.2652 7.92392 12.1501C8.52956 12.0778 9.19384 11.7868 9.59926 11.3678C10.4502 10.5991 11.301 9.83037 11.853 8.86433C13.1544 6.63334 14.2516 4.28902 15.4435 2.02872C15.6848 1.56572 15.8167 1.0734 16.1528 0.694419C16.3355 0.450225 16.8064 0.224617 17.0252 0.283246C17.244 0.341875 17.5243 0.827388 17.451 1.1009C17.3298 1.77197 17.0846 2.46844 16.9087 3.12486Z" fill="#21A9E1"/>
</svg>
